# xmcd
#
# Track frame offsets:
#	150
#	25725
#	49500
#	90000
#	111385
#	146700
#	167925
#	187575
#	199387
#
# Disc length: 2946 seconds
#
# Revision: 0
# Processed by: cddbd v1.4PL0 Copyright (c) Steve Scherf et al.
# Submitted via: dBpowerAMP V4.0
#
DISCID=6f0b8009
DTITLE=Jose Neto - In Memory of Thunder
DYEAR=1900
DGENRE=Blues
TTITLE0=For the Gypsies
TTITLE1=Leave a Fax or Send a Message
TTITLE2=Sylvia
TTITLE3=Moonlight with Strings
TTITLE4=Savanah
TTITLE5=Airbourne
TTITLE6=Deer Park
TTITLE7=Redemption Song
TTITLE8=In Memory of Thunder
EXTD=Promotional Copy
EXTT0=
EXTT1=
EXTT2=
EXTT3=
EXTT4=
EXTT5=
EXTT6=
EXTT7=
EXTT8=
PLAYORDER=
